<svg width="40" height="40" viewBox="0 0 40 40" fill="none" xmlns="http://www.w3.org/2000/svg">
<path fill-rule="evenodd" clip-rule="evenodd" d="M31.6654 35C34.4268 35 36.6654 32.7614 36.6654 30V10C36.6654 7.23858 34.4268 5 31.6654 5H19.9987H13.332L8.33202 5.00001C5.5706 5.00002 3.33203 7.23859 3.33203 10V14.1667V20V30C3.33203 32.7614 5.5706 35 8.33203 35L31.6654 35ZM31.6654 8.33333C32.5858 8.33333 33.332 9.07953 33.332 10V30C33.332 30.9205 32.5858 31.6667 31.6654 31.6667H8.33203C7.41155 31.6667 6.66536 30.9205 6.66536 30L6.66536 20L6.66536 14.1667L6.66536 10C6.66536 9.07954 7.41155 8.33334 8.33203 8.33334L13.332 8.33333L19.9987 8.33333L31.6654 8.33333ZM10.4154 9.99999C9.26478 9.99999 8.33204 10.9327 8.33204 12.0833C8.33204 13.2339 9.26478 14.1667 10.4154 14.1667C11.566 14.1667 12.4987 13.2339 12.4987 12.0833C12.4987 10.9327 11.566 9.99999 10.4154 9.99999ZM14.9987 12.0833C14.9987 10.9327 15.9314 9.99999 17.082 9.99999C18.2326 9.99999 19.1654 10.9327 19.1654 12.0833C19.1654 13.2339 18.2326 14.1667 17.082 14.1667C15.9314 14.1667 14.9987 13.2339 14.9987 12.0833ZM24.7306 19.2398C25.2313 18.4674 25.0109 17.4354 24.2385 16.9347C23.4661 16.4341 22.4341 16.6544 21.9334 17.4268L18.9543 22.0233L18.0284 20.7075C17.4987 19.9547 16.459 19.7739 15.7062 20.3036C14.9534 20.8334 14.7726 21.873 15.3024 22.6258L17.648 25.9591C17.9667 26.4119 18.4893 26.6769 19.0428 26.6664C19.5964 26.6558 20.1085 26.3711 20.4096 25.9065L24.7306 19.2398Z" fill="#3EC6FF"/>
</svg>
