<svg width="40" height="40" viewBox="0 0 40 40" fill="none" xmlns="http://www.w3.org/2000/svg">
<path d="M19.9987 36.6663C29.2034 36.6663 36.6654 29.2044 36.6654 19.9997C36.6654 10.7949 29.2034 3.33301 19.9987 3.33301C10.794 3.33301 3.33203 10.7949 3.33203 19.9997C3.33203 29.2044 10.794 36.6663 19.9987 36.6663Z" fill="#F2F4F7"/>
<path d="M21.7663 19.9996L25.5996 16.1663C26.0829 15.6829 26.0829 14.8829 25.5996 14.3996C25.1163 13.9163 24.3163 13.9163 23.8329 14.3996L19.9996 18.2329L16.1663 14.3996C15.6829 13.9163 14.8829 13.9163 14.3996 14.3996C13.9163 14.8829 13.9163 15.6829 14.3996 16.1663L18.2329 19.9996L14.3996 23.8329C13.9163 24.3163 13.9163 25.1163 14.3996 25.5996C14.6496 25.8496 14.9663 25.9663 15.2829 25.9663C15.5996 25.9663 15.9163 25.8496 16.1663 25.5996L19.9996 21.7663L23.8329 25.5996C24.0829 25.8496 24.3996 25.9663 24.7163 25.9663C25.0329 25.9663 25.3496 25.8496 25.5996 25.5996C26.0829 25.1163 26.0829 24.3163 25.5996 23.8329L21.7663 19.9996Z" fill="#667085"/>
</svg>
