<svg width="40" height="40" viewBox="0 0 40 40" fill="none" xmlns="http://www.w3.org/2000/svg">
<path fill-rule="evenodd" clip-rule="evenodd" d="M19.9987 20.0001C17.2373 20.0001 14.9987 22.2387 14.9987 25.0001V26.9048V31.6667C14.9987 32.5872 14.2525 33.3334 13.332 33.3334C12.4116 33.3334 11.6654 32.5872 11.6654 31.6667V26.9048V25.0001L11.6656 24.941C11.3933 24.9799 11.115 25.0001 10.832 25.0001C10.6486 25.0001 10.4672 24.9916 10.2881 24.9751C10.1941 24.9915 10.0974 25.0001 9.9987 25.0001H9.28441C7.83795 25.0001 6.66536 26.1727 6.66536 27.6191V30.0001C6.66536 30.9206 5.91917 31.6667 4.9987 31.6667C4.07822 31.6667 3.33203 30.9206 3.33203 30.0001V27.6191C3.33203 25.5008 4.43863 23.6408 6.1053 22.5859C5.40913 21.6252 4.9987 20.4439 4.9987 19.1667C4.9987 15.9451 7.61037 13.3334 10.832 13.3334C11.7363 13.3334 12.5924 13.5392 13.3563 13.9064C13.3402 13.7175 13.332 13.5264 13.332 13.3334C13.332 9.65152 16.3168 6.66675 19.9987 6.66675C23.6806 6.66675 26.6654 9.65152 26.6654 13.3334C26.6654 13.5264 26.6572 13.7175 26.6411 13.9064C27.405 13.5392 28.2611 13.3334 29.1654 13.3334C32.387 13.3334 34.9987 15.9451 34.9987 19.1667C34.9987 20.4439 34.5883 21.6252 33.8921 22.5859C35.5588 23.6408 36.6654 25.5008 36.6654 27.6191V30.0001C36.6654 30.9206 35.9192 31.6667 34.9987 31.6667C34.0782 31.6667 33.332 30.9206 33.332 30.0001V27.6191C33.332 26.1727 32.1594 25.0001 30.713 25.0001H29.9987C29.9 25.0001 29.8033 24.9915 29.7093 24.9751C29.5302 24.9916 29.3488 25.0001 29.1654 25.0001C28.8824 25.0001 28.6041 24.9799 28.3318 24.941L28.332 25.0001V26.9048V31.6667C28.332 32.5872 27.5858 33.3334 26.6654 33.3334C25.7449 33.3334 24.9987 32.5872 24.9987 31.6667V26.9048V25.0001C24.9987 22.2387 22.7601 20.0001 19.9987 20.0001ZM19.9987 16.6667C18.1577 16.6667 16.6654 15.1744 16.6654 13.3334C16.6654 11.4925 18.1577 10.0001 19.9987 10.0001C21.8396 10.0001 23.332 11.4925 23.332 13.3334C23.332 15.1744 21.8396 16.6667 19.9987 16.6667ZM10.832 16.6667C9.45132 16.6667 8.33203 17.786 8.33203 19.1667C8.33203 20.5475 9.45132 21.6667 10.832 21.6667C12.2127 21.6667 13.332 20.5475 13.332 19.1667C13.332 17.786 12.2127 16.6667 10.832 16.6667ZM29.1654 16.6667C27.7847 16.6667 26.6654 17.786 26.6654 19.1667C26.6654 20.5475 27.7847 21.6667 29.1654 21.6667C30.5461 21.6667 31.6654 20.5475 31.6654 19.1667C31.6654 17.786 30.5461 16.6667 29.1654 16.6667Z" fill="#E5AF00"/>
</svg>
