<svg width="18" height="18" viewBox="0 0 18 18" fill="none" xmlns="http://www.w3.org/2000/svg">
<path fill-rule="evenodd" clip-rule="evenodd" d="M14.8394 5.31226L10.3577 1.94795C9.53611 1.33121 8.40744 1.35334 7.61003 2.00183L3.0917 5.6763C2.55959 6.10903 2.25 6.76304 2.25 7.45441V14.2201C2.25 15.4792 3.25736 16.5 4.5 16.5L6 16.5H7.5H10.5H12L13.5 16.5C14.7426 16.5 15.75 15.4792 15.75 14.2201V7.14424C15.75 6.42188 15.4122 5.74226 14.8394 5.31226ZM12 14.98H13.5C13.9142 14.98 14.25 14.6398 14.25 14.2201V7.14424C14.25 6.90346 14.1374 6.67691 13.9465 6.53358L9.46478 3.16928C9.19092 2.9637 8.8147 2.97107 8.54889 3.18723L4.03057 6.8617C3.8532 7.00595 3.75 7.22395 3.75 7.45441V14.2201C3.75 14.6398 4.08579 14.98 4.5 14.98H6V12.7001C6 11.0212 7.34315 9.66019 9 9.66019C10.6569 9.66019 12 11.0212 12 12.7001V14.98ZM7.5 14.98H10.5V12.7001C10.5 11.8607 9.82843 11.1801 9 11.1801C8.17157 11.1801 7.5 11.8607 7.5 12.7001V14.98Z" fill="white"/>
</svg>
