<svg width="32" height="32" viewBox="0 0 32 32" fill="none" xmlns="http://www.w3.org/2000/svg">
<path d="M16 10.5859C13 10.5859 10.6094 13.0234 10.6094 15.9766C10.6094 18.9766 13 21.3672 16 21.3672C18.9531 21.3672 21.3906 18.9766 21.3906 15.9766C21.3906 13.0234 18.9531 10.5859 16 10.5859ZM16 19.4922C14.0781 19.4922 12.4844 17.9453 12.4844 15.9766C12.4844 14.0547 14.0312 12.5078 16 12.5078C17.9219 12.5078 19.4688 14.0547 19.4688 15.9766C19.4688 17.9453 17.9219 19.4922 16 19.4922ZM22.8438 10.3984C22.8438 11.1016 22.2812 11.6641 21.5781 11.6641C20.875 11.6641 20.3125 11.1016 20.3125 10.3984C20.3125 9.69531 20.875 9.13281 21.5781 9.13281C22.2812 9.13281 22.8438 9.69531 22.8438 10.3984ZM26.4062 11.6641C26.3125 9.97656 25.9375 8.47656 24.7188 7.25781C23.5 6.03906 22 5.66406 20.3125 5.57031C18.5781 5.47656 13.375 5.47656 11.6406 5.57031C9.95312 5.66406 8.5 6.03906 7.23438 7.25781C6.01562 8.47656 5.64062 9.97656 5.54688 11.6641C5.45312 13.3984 5.45312 18.6016 5.54688 20.3359C5.64062 22.0234 6.01562 23.4766 7.23438 24.7422C8.5 25.9609 9.95312 26.3359 11.6406 26.4297C13.375 26.5234 18.5781 26.5234 20.3125 26.4297C22 26.3359 23.5 25.9609 24.7188 24.7422C25.9375 23.4766 26.3125 22.0234 26.4062 20.3359C26.5 18.6016 26.5 13.3984 26.4062 11.6641ZM24.1562 22.1641C23.8281 23.1016 23.0781 23.8047 22.1875 24.1797C20.7812 24.7422 17.5 24.6016 16 24.6016C14.4531 24.6016 11.1719 24.7422 9.8125 24.1797C8.875 23.8047 8.17188 23.1016 7.79688 22.1641C7.23438 20.8047 7.375 17.5234 7.375 15.9766C7.375 14.4766 7.23438 11.1953 7.79688 9.78906C8.17188 8.89844 8.875 8.19531 9.8125 7.82031C11.1719 7.25781 14.4531 7.39844 16 7.39844C17.5 7.39844 20.7812 7.25781 22.1875 7.82031C23.0781 8.14844 23.7812 8.89844 24.1562 9.78906C24.7188 11.1953 24.5781 14.4766 24.5781 15.9766C24.5781 17.5234 24.7188 20.8047 24.1562 22.1641Z" fill="black"/>
</svg>
