<svg width="148" height="72" viewBox="0 0 148 72" fill="none" xmlns="http://www.w3.org/2000/svg">
<g clip-path="url(#clip0_636_2720)">
<path d="M29.6086 12.9062H23.7329V36.3595H39.9773V30.8775H29.6086V12.9062Z" fill="#1C156D"/>
<path d="M58.6843 13.9995C56.8266 12.9779 54.6808 12.46 52.2902 12.46C49.8996 12.46 47.7539 12.9779 45.8961 13.9995C44.0384 15.0211 42.5695 16.4743 41.5326 18.3161C40.4957 20.1434 39.9773 22.2729 39.9773 24.647C39.9773 27.0211 40.4957 29.1506 41.5326 30.9779C42.5695 32.8197 44.0384 34.2729 45.8961 35.2945C47.7539 36.3161 49.8996 36.8341 52.2902 36.8341C54.6808 36.8341 56.8266 36.3161 58.6843 35.2945C60.5421 34.2729 62.011 32.8197 63.0478 30.9779C64.0847 29.1506 64.6032 27.0211 64.6032 24.647C64.6032 22.2729 64.0847 20.1578 63.0478 18.3161C62.011 16.4743 60.5421 15.0211 58.6843 13.9995ZM55.5593 30.4312C54.6232 30.9779 53.5287 31.2657 52.2902 31.2657C51.0517 31.2657 49.9573 30.9923 49.0212 30.4312C48.0851 29.8844 47.3362 29.1074 46.8178 28.1003C46.285 27.0931 46.0114 25.9276 46.0114 24.6326C46.0114 23.3377 46.285 22.1722 46.8178 21.165C47.3507 20.1722 48.0851 19.3808 49.0212 18.8341C49.9573 18.2873 51.0517 18.0139 52.2902 18.0139C53.5287 18.0139 54.6088 18.2873 55.5593 18.8341C56.4953 19.3808 57.2442 20.1578 57.7626 21.165C58.2955 22.1722 58.5691 23.3377 58.5691 24.6326C58.5691 25.9276 58.2955 27.0931 57.7626 28.1003C57.2298 29.0931 56.4953 29.8844 55.5593 30.4312Z" fill="#1C156D"/>
<path d="M83.2238 23.9422C84.9664 22.9638 85.8448 21.3235 85.8448 19.0645C85.8448 17.0501 85.1248 15.4962 83.6991 14.4458C82.3165 13.4242 80.3292 12.9062 77.7946 12.9062H67.5986V36.3595H77.5642C80.1564 36.3595 82.3454 35.7839 84.0735 34.6616C85.8592 33.4962 86.7665 31.712 86.7665 29.3811C86.7665 26.7624 85.5856 24.935 83.2382 23.9422H83.2238ZM73.4167 26.7624H77.7226C78.6731 26.7624 79.3931 26.9638 79.8828 27.3667C80.358 27.7552 80.574 28.3019 80.574 29.0214C80.574 29.7408 80.3436 30.3307 79.8972 30.7192C79.4219 31.1221 78.6875 31.3235 77.737 31.3235H73.4311V26.748L73.4167 26.7624ZM79.1339 21.4098C78.7307 21.8127 78.2266 21.9998 77.593 21.9998L73.4167 21.971V17.9422H77.593C78.2122 17.9422 78.7019 18.1437 79.1195 18.5609C79.5371 18.9782 79.7388 19.4386 79.7388 19.9854C79.7388 20.5321 79.5515 20.9926 79.1483 21.3955L79.1339 21.4098Z" fill="#1C156D"/>
<path d="M111.378 18.3019C110.341 16.4602 108.872 15.007 107.014 13.9854C105.157 12.9638 103.011 12.4458 100.62 12.4458C98.2297 12.4458 96.084 12.9638 94.2262 13.9854C92.3685 15.007 90.8996 16.4602 89.8627 18.3019C88.8258 20.1293 88.3074 22.2588 88.3074 24.6329C88.3074 27.007 88.8258 29.1221 89.8627 30.9638C90.8996 32.8055 92.3685 34.2588 94.2262 35.2803C96.084 36.3019 98.2297 36.8199 100.62 36.8199C103.011 36.8199 105.157 36.3019 107.014 35.2803C108.872 34.2588 110.341 32.8055 111.378 30.9638C112.415 29.1364 112.933 27.007 112.933 24.6329C112.933 22.2588 112.415 20.1293 111.378 18.3019ZM103.875 30.4314C102.939 30.9782 101.844 31.2659 100.606 31.2659C99.3674 31.2659 98.2729 30.9926 97.3369 30.4314C96.4008 29.8847 95.6519 29.1077 95.1335 28.1005C94.6006 27.0933 94.327 25.9278 94.327 24.6329C94.327 23.3379 94.6006 22.1724 95.1335 21.1652C95.6663 20.1724 96.4008 19.3811 97.3369 18.8343C98.2729 18.2875 99.3674 18.0141 100.606 18.0141C101.844 18.0141 102.924 18.2875 103.875 18.8343C104.811 19.3811 105.56 20.1724 106.078 21.1652C106.611 22.1724 106.885 23.3379 106.885 24.6329C106.885 25.9278 106.611 27.0933 106.078 28.1005C105.545 29.0933 104.811 29.8847 103.875 30.4314Z" fill="#1C156D"/>
<path d="M117.11 60.5466C117.11 60.82 117.023 61.0646 116.836 61.266C116.649 61.4675 116.419 61.5682 116.116 61.5682H110.658V59.1797C110.658 57.8272 110.327 56.5754 109.65 55.4243C108.988 54.2732 108.08 53.3811 106.943 52.7193C105.805 52.0574 104.566 51.7265 103.227 51.7265H99.1228L103.558 45.6545L100.419 43.4243L94.6873 51.3955L96.8042 55.5826H102.968C103.659 55.5826 104.307 55.7552 104.898 56.0862C105.488 56.4315 105.949 56.8919 106.309 57.4819C106.655 58.0862 106.827 58.7193 106.827 59.4243V61.5682H83.3968C83.1376 61.5682 82.9216 61.4675 82.7344 61.2804C82.5472 61.0934 82.4608 60.8632 82.4608 60.6042V51.8272H78.6301V59.3668C78.6301 59.9711 78.414 60.4891 77.982 60.9207C77.55 61.3524 77.0459 61.5682 76.4555 61.5682C75.7354 61.5682 75.145 61.3812 74.6986 61.0071C74.2377 60.6329 74.0073 60.115 74.0073 59.4531V54.6329H70.2054V59.3668C70.2054 59.9855 69.9894 60.5178 69.543 60.9351C69.0965 61.3524 68.5061 61.5682 67.7572 61.5682C67.066 61.5682 66.4899 61.3668 66.0579 60.9783C65.6259 60.5898 65.4099 60.0718 65.4099 59.4531V54.5035H61.608V66.1869C61.608 66.5035 61.5072 66.7624 61.2912 66.9639C61.0751 67.1653 60.8159 67.2804 60.5135 67.2804H56.3084C55.6315 67.2804 54.9979 67.1078 54.4362 66.7768C53.8602 66.4315 53.4138 65.9855 53.0681 65.4099C52.7225 64.8488 52.5641 64.2157 52.5641 63.5394V58.1725H48.7334V63.5394C48.7334 64.8919 49.079 66.1581 49.7559 67.3236C50.4327 68.4891 51.3544 69.4099 52.5209 70.0862C53.6874 70.7624 54.9547 71.1078 56.3084 71.1078H61.4352C62.1552 71.1078 62.8177 70.9351 63.4369 70.5754C64.0562 70.2157 64.5314 69.7265 64.8914 69.1222C65.2515 68.5178 65.4243 67.8272 65.4243 67.0934V64.8056C65.8131 64.9927 66.2019 65.1222 66.6052 65.2229C67.0084 65.3092 67.4836 65.3668 68.0165 65.3668C68.8085 65.3668 69.5574 65.2085 70.263 64.9063C70.9687 64.6042 71.5735 64.1869 72.0632 63.6545C73.2009 64.7912 74.6122 65.3668 76.2971 65.3668C77.7948 65.3668 79.0909 64.9063 80.1854 63.9855C80.5886 64.4027 81.0782 64.7481 81.6255 64.9927C82.1727 65.2373 82.7776 65.3668 83.3968 65.3668H93.9384L113.178 65.338C113.221 65.338 113.265 65.3668 113.322 65.3668H116.073C116.951 65.3668 117.772 65.1509 118.507 64.7193C119.256 64.2876 119.832 63.6977 120.264 62.9639C120.696 62.2157 120.912 61.4243 120.912 60.561V51.8128H117.081V60.561L117.11 60.5466Z" fill="#1C156D"/>
<path d="M116.779 67.4243C116.174 67.4243 115.655 67.6401 115.238 68.0574C114.82 68.4747 114.604 68.9783 114.604 69.5682C114.604 70.1581 114.82 70.6905 115.238 71.1078C115.655 71.525 116.174 71.7409 116.779 71.7409C117.383 71.7409 117.873 71.525 118.305 71.1078C118.737 70.6905 118.953 70.1725 118.953 69.5682C118.953 68.9639 118.737 68.4747 118.305 68.0574C117.873 67.6401 117.369 67.4243 116.779 67.4243Z" fill="#1C156D"/>
<path d="M140.843 46.1438V60.6186C140.843 60.8776 140.742 61.0934 140.555 61.2949C140.368 61.4963 140.137 61.5826 139.878 61.5826H136.551V51.8128H130.114C128.89 51.8128 127.752 52.115 126.715 52.7049C125.678 53.2949 124.858 54.115 124.253 55.1366C123.648 56.1582 123.345 57.2805 123.345 58.4891C123.345 59.6977 123.648 60.892 124.253 61.9423C124.858 62.9927 125.678 63.8272 126.715 64.4459C127.752 65.0646 128.89 65.3668 130.114 65.3668H132.62L132.562 65.6114C132.418 66.1582 132.202 66.5754 131.9 66.8488C131.237 67.4387 130.416 67.8128 129.437 67.9711C128.458 68.1294 126.903 68.2157 124.8 68.2157L124.771 71.9855C126.643 71.9999 128.141 71.9567 129.264 71.8272C130.388 71.6977 131.352 71.4819 132.159 71.1366C132.965 70.7913 133.729 70.2877 134.449 69.6114C135.673 68.4747 136.378 67.0503 136.537 65.3524H139.892C140.756 65.3524 141.548 65.1366 142.268 64.7049C142.989 64.2733 143.565 63.6977 143.997 62.9783C144.429 62.2589 144.645 61.4675 144.645 60.6042V46.1294H140.843V46.1438ZM132.721 61.5682H130.1C129.279 61.5682 128.573 61.2661 127.983 60.6762C127.392 60.0862 127.104 59.3524 127.104 58.4891C127.104 57.6834 127.392 57.0071 127.983 56.4459C128.573 55.8992 129.279 55.6258 130.1 55.6258H132.721V61.5682Z" fill="#1C156D"/>
<path d="M39.3437 53.0214C41.9365 53.0214 44.0384 50.9214 44.0384 48.3308C44.0384 45.7402 41.9365 43.6401 39.3437 43.6401C36.7508 43.6401 34.6489 45.7402 34.6489 48.3308C34.6489 50.9214 36.7508 53.0214 39.3437 53.0214Z" fill="#E5AF00"/>
<path d="M148 12.5322H135.86L117.643 21.8991V35.1078L124.425 37.6114V24.9351L148 12.5322Z" fill="#E5AF00"/>
<path d="M126.211 12.5322H114.071L137.646 24.9351V37.6114L140.958 32.302L144.429 35.1078V21.8991L126.211 12.5322Z" fill="#E5AF00"/>
<path d="M144.054 3.17985H143.824V1.10791H144.731C144.846 1.10791 144.947 1.13669 145.048 1.19424C145.149 1.2518 145.221 1.32374 145.278 1.42446C145.336 1.52518 145.365 1.6259 145.365 1.741C145.365 1.84172 145.336 1.94244 145.293 2.02877C145.249 2.1151 145.177 2.18705 145.105 2.2446C145.019 2.30215 144.933 2.33093 144.832 2.34532H144.731L145.365 3.15108H145.105L144.486 2.35971H144.069V3.16546L144.054 3.17985ZM144.918 2.1151C144.918 2.1151 145.033 2.02877 145.077 1.95683C145.12 1.88489 145.134 1.81295 145.134 1.741C145.134 1.66906 145.12 1.59712 145.077 1.52518C145.033 1.45323 144.99 1.41007 144.918 1.3669C144.861 1.32374 144.789 1.30935 144.702 1.30935H144.04V2.15827H144.702C144.774 2.15827 144.846 2.14388 144.918 2.10072V2.1151Z" fill="#1C156D"/>
<path d="M144.486 4.31655C143.291 4.31655 142.326 3.35252 142.326 2.15827C142.326 0.964029 143.291 0 144.486 0C145.681 0 146.646 0.964029 146.646 2.15827C146.646 3.35252 145.681 4.31655 144.486 4.31655ZM144.486 0.158273C143.377 0.158273 142.484 1.05036 142.484 2.15827C142.484 3.26619 143.377 4.15827 144.486 4.15827C145.595 4.15827 146.488 3.26619 146.488 2.15827C146.488 1.05036 145.595 0.158273 144.486 0.158273Z" fill="#1C156D"/>
<path d="M18.3615 48.6903C18.4767 48.6903 18.5775 48.6471 18.6639 48.5752C18.7503 48.4888 18.7935 48.4025 18.7935 48.273C18.7935 48.1435 18.7503 48.0716 18.6639 47.9852C18.5775 47.8989 18.4767 47.8701 18.3615 47.8701C18.2607 47.8701 18.1599 47.9133 18.0735 47.9852C17.9871 48.0572 17.9438 48.1579 17.9438 48.273C17.9438 48.3881 17.9871 48.4744 18.0735 48.5608C18.1599 48.6471 18.2463 48.6903 18.3615 48.6903Z" fill="#1C156D"/>
<path d="M19.5712 48.6903C19.6864 48.6903 19.7872 48.6471 19.8736 48.5608C19.96 48.4744 19.9888 48.3881 19.9888 48.273C19.9888 48.1579 19.9456 48.0716 19.8592 47.9852C19.7728 47.8989 19.6864 47.8701 19.5712 47.8701C19.456 47.8701 19.3552 47.9133 19.2832 47.9852C19.1968 48.0572 19.1536 48.1579 19.1536 48.273C19.1536 48.3881 19.1968 48.4744 19.2832 48.5608C19.3696 48.6471 19.456 48.6903 19.5712 48.6903Z" fill="#1C156D"/>
<path d="M24.1939 55.1508C24.2803 55.0789 24.3091 54.9782 24.3091 54.8487C24.3091 54.7336 24.2659 54.6472 24.1795 54.5609C24.0931 54.489 24.0067 54.4458 23.8915 54.4458C23.7763 54.4458 23.6755 54.489 23.6035 54.5609C23.5171 54.6472 23.4739 54.7336 23.4739 54.8487C23.4739 54.9638 23.5171 55.0645 23.6035 55.1364C23.6899 55.2228 23.7763 55.2659 23.8915 55.2659C24.0067 55.2659 24.1075 55.2228 24.1939 55.1508Z" fill="#1C156D"/>
<path d="M22.941 55.1506C23.0274 55.0643 23.0706 54.978 23.0706 54.8628C23.0706 54.7477 23.0274 54.6614 22.941 54.5751C22.8546 54.5031 22.7538 54.46 22.6386 54.46C22.5234 54.46 22.437 54.5031 22.3506 54.5751C22.2642 54.6614 22.2354 54.7477 22.2354 54.8628C22.2354 54.978 22.2786 55.0787 22.3506 55.1506C22.437 55.2369 22.5234 55.2801 22.6386 55.2801C22.7538 55.2801 22.8546 55.2369 22.941 55.1506Z" fill="#1C156D"/>
<path d="M26.2963 49.2657C26.4115 49.2657 26.5123 49.2226 26.5987 49.1506C26.6851 49.0643 26.7283 48.9779 26.7283 48.8628C26.7283 48.7477 26.6851 48.6614 26.5987 48.5751C26.5123 48.4887 26.4115 48.46 26.2963 48.46C26.1811 48.46 26.0947 48.5031 26.0083 48.5751C25.9219 48.647 25.8931 48.7477 25.8931 48.8628C25.8931 48.9779 25.9363 49.0643 26.0083 49.1506C26.0947 49.2369 26.1811 49.2657 26.2963 49.2657Z" fill="#1C156D"/>
<path d="M30.9335 48.6326C31.0487 48.6326 31.1495 48.5895 31.2359 48.5031C31.3223 48.4168 31.3655 48.3305 31.3655 48.2154C31.3655 48.1003 31.3223 48.0139 31.2359 47.9276C31.1495 47.8413 31.0487 47.8125 30.9335 47.8125C30.8183 47.8125 30.7319 47.8557 30.6455 47.9276C30.5591 47.9996 30.5303 48.1003 30.5303 48.2154C30.5303 48.3305 30.5735 48.4168 30.6455 48.5031C30.7175 48.5895 30.8183 48.6326 30.9335 48.6326Z" fill="#1C156D"/>
<path d="M29.7094 48.6326C29.8246 48.6326 29.9254 48.5895 30.0118 48.5031C30.0982 48.4168 30.127 48.3305 30.127 48.2154C30.127 48.1003 30.0838 48.0139 29.9974 47.9276C29.911 47.8557 29.8246 47.8125 29.7094 47.8125C29.5942 47.8125 29.4934 47.8557 29.4214 47.9276C29.335 47.9996 29.2917 48.1003 29.2917 48.2154C29.2917 48.3305 29.335 48.4168 29.4214 48.5031C29.5078 48.5895 29.5942 48.6326 29.7094 48.6326Z" fill="#1C156D"/>
<path d="M35.1098 49.3089C35.225 49.3089 35.3258 49.2657 35.4122 49.1794C35.4986 49.0931 35.5274 49.0068 35.5274 48.8916C35.5274 48.7765 35.4842 48.6902 35.3978 48.6039C35.3114 48.5319 35.225 48.4888 35.1098 48.4888C34.9946 48.4888 34.8938 48.5319 34.8217 48.6039C34.7353 48.6902 34.6921 48.7765 34.6921 48.8916C34.6921 49.0068 34.7353 49.0931 34.8217 49.1794C34.9082 49.2657 34.9946 49.3089 35.1098 49.3089Z" fill="#1C156D"/>
<path d="M33.8857 49.3089C34.0009 49.3089 34.1017 49.2657 34.1881 49.1794C34.2745 49.0931 34.3177 49.0068 34.3177 48.8916C34.3177 48.7765 34.2745 48.6902 34.1881 48.6039C34.1017 48.5319 34.0009 48.4888 33.8857 48.4888C33.7704 48.4888 33.684 48.5319 33.5976 48.6039C33.5112 48.6902 33.4824 48.7765 33.4824 48.8916C33.4824 49.0068 33.5256 49.0931 33.5976 49.1794C33.6696 49.2657 33.7704 49.3089 33.8857 49.3089Z" fill="#1C156D"/>
<path d="M37.1549 52.3017C37.1549 52.46 37.0973 52.6038 36.9677 52.719C36.8525 52.8341 36.7085 52.8916 36.5356 52.8916H35.5996C35.398 52.8916 35.2107 52.8197 35.0667 52.6758C34.9227 52.5319 34.8363 52.3592 34.8219 52.1434V50.2441H34.2171V52.1434C34.2171 52.3449 34.1451 52.5319 34.001 52.6758C33.857 52.8197 33.6842 52.8916 33.4826 52.8916H32.0569C32.0569 52.8916 32.1289 52.7333 32.1289 52.647V51.2657C32.1289 50.9348 32.0425 50.6182 31.8841 50.3305C31.7257 50.0427 31.4953 49.8125 31.2072 49.6542C30.9192 49.4815 30.6168 49.4096 30.2856 49.4096C29.9543 49.4096 29.6375 49.4959 29.3495 49.6542C29.0615 49.8269 28.8311 50.0427 28.6582 50.3305C28.4854 50.6182 28.4134 50.9204 28.4134 51.2657V51.6254C28.4134 51.8988 28.471 52.1434 28.6006 52.3592C28.7303 52.5751 28.9031 52.7621 29.1047 52.8916H27.3765C27.1749 52.8916 26.9877 52.8197 26.8437 52.6758C26.6997 52.5319 26.6133 52.3592 26.5989 52.1434V50.2873H25.994V52.1434C25.994 52.3449 25.922 52.5319 25.778 52.6758C25.634 52.8197 25.4612 52.8916 25.2596 52.8916H24.4243C24.2227 52.8916 24.0355 52.8197 23.8915 52.6758C23.7475 52.5319 23.6611 52.3592 23.6467 52.1434V50.2154H23.0418V52.1434C23.0418 52.3449 22.9698 52.5319 22.8258 52.6758C22.6818 52.8197 22.509 52.8916 22.293 52.8916H21.4289C21.1697 52.8916 20.9681 52.8053 20.7952 52.647C20.6368 52.4887 20.5504 52.2729 20.5504 52.0283V49.4096H18.6495C18.3039 49.4096 17.987 49.4959 17.699 49.6542C17.411 49.8125 17.1806 50.0427 17.0222 50.3305C16.8638 50.6182 16.7773 50.9348 16.7773 51.2801V51.6542C16.7773 51.9851 16.8638 52.3017 17.0366 52.5751C17.2094 52.8628 17.4398 53.0787 17.7278 53.2513C18.0158 53.424 18.3327 53.4959 18.6639 53.4959C18.9807 53.4959 19.2687 53.424 19.5424 53.2513C19.816 53.0787 20.0176 52.8772 20.1616 52.6182C20.2624 52.8772 20.4208 53.0787 20.6656 53.2369C20.8961 53.3952 21.1553 53.4815 21.4433 53.4815H22.365C22.581 53.4815 22.7682 53.424 22.9554 53.3233C23.1282 53.2226 23.2866 53.0787 23.3874 52.906C23.4883 53.0787 23.6323 53.2082 23.8195 53.3233C24.0067 53.424 24.2083 53.4815 24.4243 53.4815H25.3172C25.5332 53.4815 25.7204 53.424 25.9076 53.3233C26.0804 53.2226 26.2389 53.0787 26.3397 52.906C26.4405 53.0787 26.5845 53.2082 26.7717 53.3233C26.9589 53.424 27.1605 53.4815 27.3765 53.4815H33.5402C33.7562 53.4815 33.9434 53.424 34.1307 53.3233C34.3179 53.2226 34.4619 53.0787 34.5627 52.906C34.6635 53.0787 34.8075 53.2082 34.9947 53.3233C35.1819 53.424 35.3836 53.4815 35.5996 53.4815H36.55C36.7661 53.4815 36.9677 53.424 37.1549 53.3233C37.3421 53.2082 37.4861 53.0643 37.5869 52.8916C37.7021 52.7046 37.7453 52.5175 37.7453 52.2873V47.3521H37.1405V52.2873L37.1549 52.3017ZM19.9456 51.611C19.9456 51.8413 19.888 52.0571 19.7728 52.2585C19.6576 52.46 19.4991 52.6182 19.2975 52.7333C19.0959 52.8485 18.8799 52.906 18.6495 52.906C18.4191 52.906 18.2031 52.8485 18.0014 52.7333C17.7998 52.6182 17.6414 52.46 17.5262 52.2729C17.411 52.0859 17.3534 51.87 17.3534 51.6398V51.2801C17.3534 51.0355 17.411 50.8197 17.5262 50.6326C17.6414 50.4456 17.7998 50.2873 18.0014 50.1866C18.2031 50.0859 18.4047 50.0283 18.6351 50.0283H19.9312V51.611H19.9456ZM31.5241 52.7621C31.5241 52.7621 31.5097 52.8341 31.4809 52.8628C31.4521 52.8916 31.4233 52.906 31.3801 52.906H30.2712C30.0407 52.906 29.8247 52.8485 29.6231 52.7333C29.4215 52.6182 29.2631 52.4744 29.1479 52.2729C29.0327 52.0859 28.9751 51.87 28.9751 51.6398V51.2945C28.9751 51.0643 29.0327 50.8485 29.1479 50.647C29.2631 50.4456 29.4215 50.2873 29.6231 50.1722C29.8247 50.0571 30.0407 49.9995 30.2712 49.9995C30.5016 49.9995 30.7032 50.0571 30.9048 50.1722C31.1064 50.2873 31.2504 50.4456 31.3656 50.6326C31.4809 50.8197 31.5385 51.0355 31.5385 51.2657V52.7477L31.5241 52.7621Z" fill="#1C156D"/>
<path d="M39.9774 47.3379H39.387V53.5105H39.9774V47.3379Z" fill="#1C156D"/>
<path d="M2.80826 59.2659C2.92347 59.2659 3.02427 59.2228 3.11068 59.1364C3.19709 59.0501 3.22589 58.9638 3.22589 58.8487C3.22589 58.7336 3.18269 58.6472 3.09628 58.5609C3.00987 58.4746 2.92347 58.4458 2.80826 58.4458C2.69305 58.4458 2.59224 58.489 2.52023 58.5609C2.43383 58.6329 2.39062 58.7336 2.39062 58.8487C2.39062 58.9638 2.43383 59.0501 2.52023 59.1364C2.60664 59.2228 2.69305 59.2659 2.80826 59.2659Z" fill="#1C156D"/>
<path d="M1.58414 59.2659C1.69934 59.2659 1.80015 59.2228 1.88656 59.1508C1.97296 59.0645 2.01617 58.9782 2.01617 58.8487C2.01617 58.7192 1.97296 58.6472 1.88656 58.5609C1.80015 58.4746 1.69934 58.4458 1.58414 58.4458C1.48333 58.4458 1.38252 58.489 1.29611 58.5609C1.20971 58.6329 1.1665 58.7336 1.1665 58.8487C1.1665 58.9638 1.20971 59.0501 1.29611 59.1364C1.38252 59.2228 1.46893 59.2659 1.58414 59.2659Z" fill="#1C156D"/>
<path d="M6.2213 59.6545C6.32211 59.6545 6.40852 59.6257 6.48052 59.5682C6.55253 59.5106 6.62453 59.4243 6.65334 59.3236C6.69654 59.3811 6.75414 59.4243 6.82615 59.4675C6.89815 59.5106 6.97016 59.525 7.04217 59.525C7.21498 59.525 7.35899 59.4675 7.4598 59.338C7.56061 59.2229 7.61821 59.0502 7.61821 58.8344V58.2876H7.30139V58.8344C7.30139 59.079 7.20058 59.1941 6.99896 59.1941C6.94136 59.1941 6.88375 59.1797 6.82615 59.1365C6.76855 59.0934 6.75414 59.0358 6.75414 58.9639V58.5178H6.43732V59.007C6.43732 59.2372 6.35091 59.3667 6.1925 59.3667C6.03409 59.3667 5.94768 59.266 5.94768 59.079V58.748H5.63086V59.079C5.63086 59.266 5.68846 59.4243 5.78927 59.525C5.89008 59.6257 6.03409 59.6833 6.1925 59.6833L6.2213 59.6545Z" fill="#1C156D"/>
<path d="M5.87564 65.0356C5.76043 65.0356 5.67403 65.0788 5.58762 65.1507C5.50121 65.2371 5.47241 65.3234 5.47241 65.4385C5.47241 65.5536 5.51562 65.6543 5.58762 65.7263C5.67403 65.8126 5.76043 65.8558 5.87564 65.8558C5.99085 65.8558 6.09166 65.8126 6.17807 65.7263C6.26447 65.64 6.30768 65.5536 6.30768 65.4385C6.30768 65.3234 6.26447 65.2371 6.17807 65.1507C6.09166 65.0788 5.99085 65.0356 5.87564 65.0356Z" fill="#1C156D"/>
<path d="M7.12857 65.0356C7.01336 65.0356 6.91255 65.0788 6.84055 65.1507C6.75414 65.2371 6.71094 65.3234 6.71094 65.4385C6.71094 65.5536 6.75414 65.6543 6.84055 65.7263C6.92695 65.8126 7.01336 65.8558 7.12857 65.8558C7.24378 65.8558 7.34459 65.8126 7.43099 65.7407C7.5174 65.6687 7.5462 65.568 7.5462 65.4385C7.5462 65.3234 7.503 65.2371 7.41659 65.1507C7.33018 65.0788 7.24378 65.0356 7.12857 65.0356Z" fill="#1C156D"/>
<path d="M9.02945 59.8846C9.14466 59.8846 9.24547 59.8414 9.33187 59.7551C9.41828 59.6688 9.46148 59.5824 9.46148 59.4673C9.46148 59.3522 9.41828 59.2659 9.33187 59.1796C9.24547 59.1076 9.14466 59.0645 9.02945 59.0645C8.91424 59.0645 8.82784 59.1076 8.74143 59.1796C8.65502 59.2659 8.62622 59.3522 8.62622 59.4673C8.62622 59.5824 8.66942 59.6688 8.74143 59.7551C8.81344 59.8414 8.91424 59.8846 9.02945 59.8846Z" fill="#1C156D"/>
<path d="M10.2536 59.8846C10.3688 59.8846 10.4696 59.8414 10.556 59.7551C10.6424 59.6688 10.6712 59.5824 10.6712 59.4673C10.6712 59.3522 10.628 59.2659 10.5416 59.1796C10.4552 59.1076 10.3688 59.0645 10.2536 59.0645C10.1384 59.0645 10.0376 59.1076 9.96555 59.1796C9.87914 59.2659 9.83594 59.3522 9.83594 59.4673C9.83594 59.5824 9.87914 59.6688 9.96555 59.7551C10.052 59.8414 10.1384 59.8846 10.2536 59.8846Z" fill="#1C156D"/>
<path d="M20.4496 65.0356C20.3344 65.0356 20.248 65.0788 20.1616 65.1507C20.0752 65.2371 20.0464 65.3234 20.0464 65.4385C20.0464 65.5536 20.0896 65.6543 20.1616 65.7263C20.248 65.8126 20.3344 65.8558 20.4496 65.8558C20.5648 65.8558 20.6656 65.8126 20.752 65.7263C20.8384 65.64 20.8816 65.5536 20.8816 65.4385C20.8816 65.3234 20.8384 65.2371 20.752 65.1507C20.6656 65.0788 20.5648 65.0356 20.4496 65.0356Z" fill="#1C156D"/>
<path d="M21.7025 65.0356C21.5873 65.0356 21.4865 65.0788 21.4145 65.1507C21.3281 65.2371 21.2849 65.3234 21.2849 65.4385C21.2849 65.5536 21.3281 65.6543 21.4145 65.7263C21.5009 65.8126 21.5873 65.8558 21.7025 65.8558C21.8178 65.8558 21.9186 65.8126 22.005 65.7407C22.0914 65.6687 22.1202 65.568 22.1202 65.4385C22.1202 65.3234 22.077 65.2371 21.9906 65.1507C21.9042 65.0788 21.8178 65.0356 21.7025 65.0356Z" fill="#1C156D"/>
<path d="M27.3477 63.295C27.2325 63.1655 27.1749 63.0216 27.1749 62.8201V62.4173C27.1749 61.9712 27.1028 61.5971 26.9444 61.2806C26.8004 60.964 26.5988 60.705 26.3396 60.518C25.8932 60.1727 25.3027 60 24.5827 60C24.3234 60 24.0786 60.0144 23.8338 60.0719C23.589 60.1151 23.3874 60.1727 23.229 60.2302L23.4594 60.777C23.589 60.7338 23.7474 60.6906 23.949 60.6619C24.1506 60.6187 24.3666 60.6043 24.5971 60.6043C25.1731 60.6043 25.6195 60.7338 25.9796 61.0072C26.3828 61.3237 26.5844 61.7986 26.5844 62.4604V62.8345C26.5844 62.9784 26.6132 63.1079 26.6852 63.223C26.7572 63.3381 26.8292 63.4245 26.9444 63.4964H22.2209C22.0193 63.4964 21.832 63.4245 21.688 63.2806C21.544 63.1367 21.4576 62.964 21.4432 62.7482V60.8201H20.8384V62.7482C20.8384 62.9496 20.7664 63.1367 20.6224 63.2806C20.4783 63.4245 20.3055 63.4964 20.0895 63.4964H18.9662C18.7934 63.4964 18.635 63.4388 18.5198 63.3237C18.3902 63.2086 18.3326 63.0504 18.3326 62.8777V60.0576H17.7277V62.4748C17.7277 62.777 17.6269 63.0216 17.4253 63.2086C17.2237 63.4101 16.9789 63.5108 16.6621 63.5108C16.3452 63.5108 16.1148 63.4101 15.9132 63.223C15.7116 63.036 15.6108 62.7914 15.6108 62.518V60.9065H15.0203V62.4892C15.0203 62.7914 14.9195 63.036 14.7179 63.223C14.5163 63.4245 14.2715 63.5252 13.9691 63.5252C13.6666 63.5252 13.4218 63.4245 13.2346 63.2374C13.0474 63.0504 12.9322 62.8058 12.9322 62.5324V60.9209H12.3417V62.9065C12.3417 63.0791 12.2841 63.2374 12.1545 63.3525C12.0249 63.4676 11.8809 63.5252 11.7081 63.5252H10.7288C10.5272 63.5252 10.34 63.4532 10.196 63.3094C10.052 63.1655 9.96555 62.9928 9.95115 62.777V60.8777H9.3463V62.777C9.3463 62.9784 9.2743 63.1655 9.13029 63.3094C8.98627 63.4532 8.81346 63.5252 8.61185 63.5252H7.61817C7.41655 63.5252 7.22934 63.4532 7.08533 63.3094C6.94132 63.1655 6.85491 62.9928 6.84051 62.777V60.8489H6.23567V62.777C6.23567 62.9784 6.16366 63.1655 6.01965 63.3094C5.87564 63.4532 5.70283 63.5252 5.48681 63.5252H4.62274C4.36352 63.5252 4.16191 63.4388 3.9891 63.2806C3.83068 63.1223 3.74428 62.9065 3.74428 62.6619V60.0432H1.84333C1.49771 60.0432 1.18088 60.1295 0.892861 60.2878C0.604839 60.446 0.374422 60.6763 0.21601 60.964C0.057598 61.2518 -0.0288086 61.5683 -0.0288086 61.9137V62.2878C-0.0288086 62.6187 0.0575979 62.9353 0.230411 63.2086C0.403224 63.4964 0.633641 63.7122 0.921663 63.8849C1.20969 64.0576 1.52651 64.1295 1.85773 64.1295C2.17456 64.1295 2.46258 64.0576 2.7362 63.8849C3.00982 63.7122 3.21144 63.5108 3.35545 63.2518C3.45626 63.5108 3.61467 63.7122 3.85949 63.8705C4.0899 64.0288 4.34912 64.1151 4.63714 64.1151H5.55881C5.77483 64.1151 5.96204 64.0576 6.14926 63.9568C6.32207 63.8561 6.48048 63.7122 6.58129 63.5396C6.6821 63.7122 6.82611 63.8417 7.01332 63.9568C7.20054 64.0576 7.40215 64.1151 7.61817 64.1151H8.65505C8.87107 64.1151 9.05828 64.0576 9.24549 63.9568C9.43271 63.8561 9.57672 63.7122 9.67753 63.5396C9.77833 63.7122 9.92234 63.8417 10.1096 63.9568C10.2968 64.0576 10.4984 64.1151 10.7144 64.1151H11.6937C11.9241 64.1151 12.1113 64.0576 12.2985 63.9281C12.4713 63.7986 12.6153 63.6403 12.6874 63.4532C12.8314 63.6834 13.0186 63.8561 13.249 63.9568C13.4794 64.0576 13.6954 64.1151 13.9258 64.1151C14.2283 64.1151 14.5019 64.0432 14.7467 63.9137C14.9915 63.7698 15.1787 63.5827 15.3228 63.3237C15.438 63.5683 15.6108 63.7554 15.8412 63.8993C16.0716 64.0432 16.3452 64.1151 16.6477 64.1151C16.9069 64.1151 17.1517 64.0576 17.3821 63.9281C17.6125 63.8129 17.7853 63.6403 17.9294 63.4245C18.0014 63.6259 18.131 63.7842 18.3182 63.9137C18.5054 64.0432 18.707 64.1007 18.9374 64.1007H20.1327C20.3487 64.1007 20.5359 64.0432 20.7232 63.9424C20.896 63.8417 21.0544 63.6978 21.1552 63.5252C21.256 63.6978 21.4 63.8273 21.5872 63.9424C21.7744 64.0432 21.9761 64.1007 22.1921 64.1007H27.8517V63.4964H27.7509C27.5781 63.4964 27.4341 63.4388 27.3189 63.3094L27.3477 63.295ZM3.18263 62.1871C3.18263 62.4173 3.12503 62.6331 3.00982 62.8345C2.89461 63.036 2.7362 63.1942 2.53459 63.3094C2.33297 63.4245 2.11695 63.482 1.88654 63.482C1.65612 63.482 1.4401 63.4245 1.23849 63.3094C1.03687 63.1942 0.87846 63.036 0.763251 62.8489C0.648043 62.6619 0.590438 62.446 0.590438 62.2158V61.8561C0.590438 61.6115 0.648043 61.3957 0.763251 61.2086C0.87846 61.0216 1.03687 60.8633 1.23849 60.7626C1.4401 60.6619 1.64172 60.6043 1.87214 60.6043H3.16823V62.1871H3.18263Z" fill="#1C156D"/>
<path d="M25.0436 64.9639C24.9284 64.9639 24.842 65.007 24.7556 65.079C24.6692 65.1653 24.6404 65.2516 24.6404 65.3667C24.6404 65.4819 24.6836 65.5682 24.7556 65.6545C24.842 65.7408 24.9284 65.784 25.0436 65.784C25.1588 65.784 25.2596 65.7408 25.346 65.6545C25.4324 65.5682 25.4756 65.4819 25.4756 65.3667C25.4756 65.2516 25.4324 65.1653 25.346 65.079C25.2596 65.007 25.1588 64.9639 25.0436 64.9639Z" fill="#1C156D"/>
<path d="M37.1549 62.892C37.1549 63.0503 37.0973 63.1942 36.9677 63.3093C36.8525 63.4244 36.7085 63.4819 36.5357 63.4819H35.7148C35.5132 63.4819 35.326 63.41 35.182 63.2661C35.0379 63.1222 34.9515 62.9496 34.9371 62.7337V57.9424H34.3323V62.7337C34.3323 62.9352 34.2603 63.1222 34.1163 63.2661C33.9723 63.41 33.7851 63.4819 33.5834 63.4819H32.633V59.9999H30.8616C30.5016 59.9999 30.1704 60.0863 29.868 60.2733C29.5655 60.4604 29.3351 60.705 29.1767 61.0071C29.0039 61.3237 28.9319 61.6546 28.9319 62.0287C28.9319 62.4028 29.0183 62.7481 29.1767 63.0503C29.3495 63.3668 29.5799 63.6114 29.868 63.7985C30.1704 63.9855 30.5016 64.0719 30.8616 64.0719H32.0281V64.2733C31.9993 64.633 31.8841 64.9064 31.6681 65.1078C31.4809 65.2805 31.2505 65.41 30.9912 65.4819C30.732 65.5539 30.5016 65.6114 30.2856 65.6114C30.0696 65.6114 29.8104 65.6258 29.4935 65.6258V66.2158C30.1416 66.2158 30.66 66.1726 31.0488 66.0863C31.4377 65.9855 31.7689 65.8129 32.0569 65.5251C32.4458 65.1654 32.633 64.705 32.633 64.1294V64.0719H33.641C33.8571 64.0719 34.0443 64.0143 34.2315 63.9136C34.4187 63.8129 34.5627 63.669 34.6635 63.4963C34.7643 63.669 34.9083 63.7985 35.0956 63.9136C35.2828 64.0143 35.4844 64.0719 35.7004 64.0719H36.5357C36.7517 64.0719 36.9533 64.0143 37.1405 63.9136C37.3277 63.7985 37.4717 63.6546 37.5725 63.4819C37.6877 63.2949 37.731 63.1079 37.731 62.8776V57.9424H37.1261V62.8776L37.1549 62.892ZM32.0425 63.4963H30.876C30.6168 63.4963 30.3864 63.4388 30.1848 63.3093C29.9832 63.1798 29.8248 63.0071 29.7095 62.7913C29.5943 62.5755 29.5367 62.3309 29.5367 62.0719C29.5367 61.8129 29.5943 61.5683 29.7095 61.3525C29.8248 61.1366 29.9832 60.964 30.1848 60.8345C30.3864 60.705 30.6168 60.6474 30.876 60.6474H32.0425V63.5251V63.4963Z" fill="#1C156D"/>
<path d="M39.9774 57.9136H39.387V64.0862H39.9774V57.9136Z" fill="#1C156D"/>
</g>
<defs>
<clipPath id="clip0_636_2720">
<rect width="148" height="72" fill="white"/>
</clipPath>
</defs>
</svg>
