<svg width="146" height="72" viewBox="0 0 146 72" fill="none" xmlns="http://www.w3.org/2000/svg">
<g clip-path="url(#clip0_256_389)">
<path d="M39.0233 35.9423H23.8555V13.3192H28.8098V31.3096H39.0233V35.9423Z" fill="black" stroke="black" stroke-width="0.23" stroke-miterlimit="10"/>
<path d="M39.8633 24.6307C39.8633 17.6431 44.627 12.8945 51.6012 12.8945C58.5754 12.8945 63.3391 17.6817 63.3391 24.6307C63.3391 31.5798 58.5754 36.3669 51.6012 36.3669C44.627 36.3669 39.8633 31.5798 39.8633 24.6307ZM58.2324 24.6307C58.2324 20.4227 55.5266 17.5658 51.6012 17.5658C47.6759 17.5658 44.97 20.4227 44.97 24.6307C44.97 28.8388 47.6759 31.6956 51.6012 31.6956C55.5266 31.6956 58.2324 28.8002 58.2324 24.6307Z" fill="black" stroke="black" stroke-width="0.23" stroke-miterlimit="10"/>
<path d="M85.1736 29.3794C85.1736 34.0507 81.0577 35.9424 76.5226 35.9424H67.1094V13.3193H76.7512C81.515 13.3193 84.2589 15.2496 84.2589 19.033C84.2589 21.5038 83.1537 23.1638 80.9434 23.9746C83.6873 24.7853 85.1355 26.5226 85.1355 29.3794H85.1736ZM72.0256 22.3917H76.5988C78.1994 22.3917 79.2284 21.1563 79.1522 19.8437C79.076 18.6083 78.0851 17.4888 76.5988 17.4888H72.0256V22.3917ZM79.9525 28.9933C79.9525 27.2561 78.7711 26.2909 76.7131 26.2909H72.0256V31.7344H76.7131C78.8092 31.7344 79.9525 30.7692 79.9525 28.9933Z" fill="black" stroke="black" stroke-width="0.23" stroke-miterlimit="10"/>
<path d="M87.5391 24.6307C87.5391 17.6431 92.3028 12.8945 99.277 12.8945C106.251 12.8945 111.015 17.6817 111.015 24.6307C111.015 31.5798 106.251 36.3669 99.277 36.3669C92.3028 36.3669 87.5391 31.5798 87.5391 24.6307ZM105.908 24.6307C105.908 20.4227 103.202 17.5658 99.277 17.5658C95.3516 17.5658 92.6458 20.4227 92.6458 24.6307C92.6458 28.8388 95.3516 31.6956 99.277 31.6956C103.202 31.6956 105.908 28.8002 105.908 24.6307Z" fill="black" stroke="black" stroke-width="0.23" stroke-miterlimit="10"/>
<path d="M85.0606 63.4682C85.0606 64.5105 84.1841 65.3599 83.1551 65.3599H82.2786C81.0209 65.3599 79.8776 64.8194 79.1154 63.9701C78.0864 64.858 76.7907 65.3599 75.3044 65.3599C73.6657 65.3599 72.2175 64.7808 71.1123 63.6612C70.1214 64.7036 68.7113 65.3599 67.1107 65.3599C66.0055 65.3599 65.2814 65.1668 64.5573 64.8194V67.0971C64.5573 69.3363 62.8043 71.1122 60.632 71.1122H55.5633C51.4474 71.1122 48.0938 67.7148 48.0938 63.5454V58.1792H51.8667V63.5454C51.8667 65.5915 53.5054 67.2902 55.5633 67.2902H59.7173C60.3271 67.2902 60.7844 66.7883 60.7844 66.1706V54.473H64.5192V59.4146C64.5192 60.6114 65.4339 61.5379 66.8439 61.5379C68.3684 61.5379 69.2449 60.5341 69.2449 59.3374V54.5888H72.9797V59.4146C72.9797 60.7658 74.0468 61.5379 75.3806 61.5379C76.562 61.5379 77.5148 60.5341 77.5148 59.3374V51.8092H81.2877V60.5727C81.2877 61.1132 81.7069 61.5379 82.2023 61.5379H83.117C84.146 61.5379 84.9844 62.3486 84.9844 63.4296L85.0606 63.4682Z" fill="black"/>
<path d="M92.683 61.5767V65.36H82.8125V61.5767H92.683Z" fill="black"/>
<path d="M112.118 61.5764V65.3598H92.1484V61.5764H105.411V59.4145C105.411 57.2526 103.696 55.5539 101.6 55.5539H95.5021L93.4061 51.3845L99.0464 43.3931L102.133 45.6322L97.7506 51.7319H101.79C105.83 51.7319 109.107 55.052 109.107 59.1829V61.5764H112.042H112.118Z" fill="black"/>
<path d="M111.816 65.3598C110.787 65.3598 109.91 64.4718 109.91 63.4295C109.91 62.3871 110.787 61.5764 111.816 61.5764H114.56C115.169 61.5764 115.55 61.1131 115.55 60.5726V51.8091H119.323V60.5726C119.323 63.1978 117.189 65.3984 114.56 65.3984H111.854L111.816 65.3598ZM115.207 67.4445C116.389 67.4445 117.342 68.4482 117.342 69.6064C117.342 70.7646 116.351 71.7683 115.207 71.7683C114.064 71.7683 113.073 70.8032 113.073 69.6064C113.073 68.4096 114.026 67.4445 115.207 67.4445Z" fill="black"/>
<path d="M137.005 65.3598H134.68C134.528 67.0198 133.804 68.4869 132.622 69.6064C130.488 71.6525 128.316 72 123.095 71.9614V68.178C126.906 68.178 128.735 68.0622 130.145 66.7882C130.412 66.5566 130.679 66.0933 130.793 65.5528V65.3212H128.392C124.657 65.3212 121.723 62.2713 121.723 58.4493C121.723 54.6273 124.695 51.7705 128.392 51.7705H134.756V61.5378H137.081V65.3212L137.005 65.3598ZM130.907 55.6311H128.316C126.677 55.6311 125.343 56.8665 125.343 58.4879C125.343 60.2252 126.677 61.5764 128.316 61.5764H130.907V55.6311Z" fill="black"/>
<path d="M134.793 63.4683C134.793 62.426 135.631 61.5766 136.66 61.5766H137.956C138.49 61.5766 138.909 61.152 138.909 60.6115V46.1343H142.644V60.6115C142.644 63.2367 140.509 65.36 137.956 65.36H136.66C135.631 65.36 134.793 64.5107 134.793 63.4683Z" fill="black"/>
<path opacity="0.1" d="M38.833 53.0443C41.4008 53.0443 43.4825 50.9356 43.4825 48.3344C43.4825 45.7332 41.4008 43.6245 38.833 43.6245C36.2652 43.6245 34.1836 45.7332 34.1836 48.3344C34.1836 50.9356 36.2652 53.0443 38.833 53.0443Z" fill="black"/>
<path d="M146.002 12.5469H134.035L116.047 21.8895V35.1313L122.755 37.6021V24.9394L146.002 12.5469Z" fill="black"/>
<path d="M124.506 12.5469H112.539L135.787 24.9394V37.6021L139.064 32.3131L142.494 35.1313V21.8895L124.506 12.5469Z" fill="black"/>
<path d="M142.111 3.16574H141.883V1.11963H142.759C142.759 1.11963 142.988 1.11963 143.064 1.19684C143.14 1.23545 143.217 1.31266 143.293 1.42848C143.331 1.50569 143.369 1.62151 143.369 1.73732C143.369 1.85314 143.369 1.93035 143.293 2.04617C143.255 2.12338 143.179 2.20059 143.102 2.27781C143.026 2.35502 142.95 2.35502 142.836 2.39362H142.721L143.331 3.20435H143.064L142.454 2.43223H142.035V3.24295L142.111 3.16574ZM142.95 2.08478C142.95 2.08478 143.064 2.00756 143.102 1.93035C143.102 1.85314 143.14 1.77593 143.14 1.69872C143.14 1.62151 143.14 1.54429 143.102 1.46708C143.102 1.38987 143.026 1.35126 142.95 1.31266C142.874 1.31266 142.836 1.27405 142.759 1.27405H142.111V2.12338H142.759C142.759 2.12338 142.912 2.12338 142.95 2.08478Z" fill="black"/>
<path d="M142.533 4.32386C141.351 4.32386 140.398 3.35871 140.398 2.16193C140.398 0.965147 141.351 0 142.533 0C143.714 0 144.667 0.965147 144.667 2.16193C144.667 3.35871 143.714 4.32386 142.533 4.32386ZM142.533 0.154424C141.427 0.154424 140.551 1.04236 140.551 2.16193C140.551 3.2815 141.427 4.16944 142.533 4.16944C143.638 4.16944 144.514 3.2815 144.514 2.16193C144.514 1.04236 143.638 0.154424 142.533 0.154424Z" fill="black"/>
<path d="M21.8354 53.1992C21.8354 53.1992 21.7211 53.5081 21.5305 53.5081H21.1113C20.5397 53.5081 20.0442 53.1606 19.8537 52.6587C19.5488 53.1606 19.0153 53.5081 18.3674 53.5081C17.3384 53.5081 16.5 52.6973 16.5 51.655V51.2689C16.5 50.188 17.3003 49.4158 18.3674 49.4158H20.2348V52.041C20.2348 52.5429 20.5778 52.8904 21.1113 52.8904H21.5305C21.5305 52.8904 21.8354 53.0062 21.8354 53.1992ZM19.6631 51.5778V49.9949H18.3674C17.6814 49.9949 17.1098 50.4968 17.1098 51.2689V51.6164C17.1098 52.3113 17.6814 52.8904 18.3674 52.8904C19.0534 52.8904 19.6631 52.3113 19.6631 51.5778ZM18.5198 48.2191C18.5198 48.4507 18.3293 48.6437 18.1006 48.6437C17.9101 48.6437 17.7195 48.4507 17.7195 48.2191C17.7195 47.9874 17.9101 47.833 18.1006 47.833C18.3293 47.833 18.5198 48.026 18.5198 48.2191ZM19.7013 48.2191C19.7013 48.4507 19.5107 48.6437 19.282 48.6437C19.0534 48.6437 18.8628 48.4507 18.8628 48.2191C18.8628 47.9874 19.0534 47.833 19.282 47.833C19.5107 47.833 19.7013 48.026 19.7013 48.2191Z" fill="black"/>
<path d="M24.9243 53.1992C24.9243 53.1992 24.7719 53.5081 24.6194 53.5081H24.0478C23.6286 53.5081 23.2474 53.2764 23.0188 52.929C22.8282 53.2764 22.4471 53.5081 21.9898 53.5081H21.4182C21.4182 53.5081 21.1133 53.3922 21.1133 53.1992C21.1133 53.0062 21.2657 52.8904 21.4182 52.8904H21.9517C22.3709 52.8904 22.6758 52.5429 22.6758 52.1569V50.2266H23.2856V52.1569C23.2856 52.5815 23.6286 52.8904 24.0478 52.8904H24.6194C24.6194 52.8904 24.9243 53.0062 24.9243 53.1992ZM22.752 54.8593C22.752 55.0909 22.5615 55.2839 22.3328 55.2839C22.1041 55.2839 21.9136 55.0909 21.9136 54.8593C21.9136 54.6276 22.1041 54.4346 22.3328 54.4346C22.5615 54.4346 22.752 54.6276 22.752 54.8593ZM23.9715 54.8593C23.9715 55.0909 23.781 55.2839 23.5523 55.2839C23.3237 55.2839 23.1331 55.0909 23.1331 54.8593C23.1331 54.6276 23.3237 54.4346 23.5523 54.4346C23.781 54.4346 23.9715 54.6276 23.9715 54.8593Z" fill="black"/>
<path d="M27.6662 53.1992C27.6662 53.1992 27.5138 53.5081 27.3613 53.5081H27.0183C26.561 53.5081 26.1799 53.2765 25.9893 52.929C25.7988 53.2765 25.4177 53.5081 24.9604 53.5081H24.6174C24.6174 53.5081 24.3125 53.3923 24.3125 53.1992C24.3125 53.0062 24.4649 52.8904 24.6174 52.8904H24.9223C25.3034 52.8904 25.6464 52.5429 25.6464 52.1569V50.3038H26.2561V52.1569C26.2561 52.5815 26.5991 52.8904 27.0183 52.8904H27.3613C27.3613 52.8904 27.6662 53.0062 27.6662 53.1992ZM26.3704 48.8368C26.3704 49.0684 26.1799 49.2614 25.9512 49.2614C25.7226 49.2614 25.532 49.0684 25.532 48.8368C25.532 48.6051 25.7226 48.4121 25.9512 48.4121C26.1799 48.4121 26.3704 48.6051 26.3704 48.8368Z" fill="black"/>
<path d="M32.6587 52.929V53.5467H27.2852V52.929H28.6952C28.276 52.6588 28.0092 52.1955 28.0092 51.655V51.3076C28.0092 50.2652 28.8477 49.4545 29.8766 49.4545C30.9056 49.4545 31.7059 50.3038 31.7059 51.3076V52.6974C31.7059 52.6974 31.6678 52.929 31.6297 52.929H32.6587ZM31.1343 52.7746V51.3076C31.1343 50.6127 30.5626 50.0336 29.8766 50.0336C29.1907 50.0336 28.5809 50.6127 28.5809 51.3462V51.6936C28.5809 52.3885 29.1526 52.9676 29.8766 52.9676H30.9818C30.9818 52.9676 31.1343 52.8904 31.1343 52.8132V52.7746ZM28.9239 48.2191C28.9239 47.9875 29.1144 47.7944 29.3431 47.7944C29.5718 47.7944 29.7623 47.9875 29.7623 48.2191C29.7623 48.4507 29.5718 48.6438 29.3431 48.6438C29.1144 48.6438 28.9239 48.4507 28.9239 48.2191ZM30.1434 48.2191C30.1434 47.9875 30.334 47.7944 30.5626 47.7944C30.7913 47.7944 30.9818 47.9875 30.9818 48.2191C30.9818 48.4507 30.7913 48.6438 30.5626 48.6438C30.334 48.6438 30.1434 48.4507 30.1434 48.2191Z" fill="black"/>
<path d="M35.8245 53.1992C35.8245 53.1992 35.6721 53.508 35.5197 53.508H35.1004C34.6812 53.508 34.3001 53.2764 34.0715 52.9289C33.8809 53.2764 33.4998 53.508 33.0425 53.508H32.5471C32.5471 53.508 32.2422 53.3922 32.2422 53.1992C32.2422 53.0061 32.3946 52.8903 32.5471 52.8903H33.0044C33.3855 52.8903 33.7285 52.5429 33.7285 52.1568V50.2265H34.3382V52.1568C34.3382 52.5815 34.6812 52.8903 35.1004 52.8903H35.5197C35.5197 52.8903 35.8245 53.0061 35.8245 53.1992ZM33.8428 48.8753C33.8428 49.1069 33.6523 49.3 33.4236 49.3C33.1949 49.3 33.0044 49.1069 33.0044 48.8753C33.0044 48.6437 33.1949 48.4893 33.4236 48.4893C33.6523 48.4893 33.8428 48.6823 33.8428 48.8753ZM35.0242 48.8753C35.0242 49.1069 34.8337 49.3 34.605 49.3C34.3764 49.3 34.1858 49.1069 34.1858 48.8753C34.1858 48.6437 34.3764 48.4893 34.605 48.4893C34.8337 48.4893 35.0242 48.6823 35.0242 48.8753Z" fill="black"/>
<path d="M35.2109 53.1991C35.2109 53.1991 35.3253 52.8903 35.5158 52.8903H36.0875C36.4305 52.8903 36.6972 52.6201 36.6972 52.2726V47.3311H37.307V52.2726C37.307 52.9289 36.7735 53.4694 36.1256 53.4694H35.5539C35.5539 53.4694 35.249 53.3536 35.249 53.1605L35.2109 53.1991Z" fill="black"/>
<path d="M38.8711 47.3311H39.4427V53.508H38.8711V47.3311Z" fill="black"/>
<path d="M5.29636 63.7772C5.29636 63.7772 5.18203 64.0861 4.99148 64.0861H4.57227C4.00061 64.0861 3.50518 63.7386 3.31463 63.2367C3.00975 63.7386 2.47621 64.0861 1.82833 64.0861C0.799361 64.0861 -0.0390625 63.2754 -0.0390625 62.233V61.8469C-0.0390625 60.766 0.761251 59.9939 1.82833 59.9939H3.69573V62.6191C3.69573 63.1209 4.03872 63.4684 4.57227 63.4684H4.99148C4.99148 63.4684 5.29636 63.5842 5.29636 63.7772ZM3.12408 62.1558V60.5729H1.82833C1.14235 60.5729 0.5707 61.0748 0.5707 61.8469V62.1944C0.5707 62.8893 1.14235 63.4684 1.82833 63.4684C2.51432 63.4684 3.12408 62.8893 3.12408 62.1558ZM1.98078 58.7971C1.98078 59.0287 1.79022 59.2217 1.56156 59.2217C1.37101 59.2217 1.18046 59.0287 1.18046 58.7971C1.18046 58.5654 1.37101 58.411 1.56156 58.411C1.79022 58.411 1.98078 58.604 1.98078 58.7971ZM3.16219 58.7971C3.16219 59.0287 2.97164 59.2217 2.74298 59.2217C2.51432 59.2217 2.32377 59.0287 2.32377 58.7971C2.32377 58.5654 2.51432 58.411 2.74298 58.411C2.97164 58.411 3.16219 58.604 3.16219 58.7971Z" fill="black"/>
<path d="M7.50612 58.2563V58.7968C7.50612 59.2215 7.27746 59.4917 6.93447 59.4917C6.78202 59.4917 6.62958 59.4145 6.55336 59.2987C6.47714 59.5303 6.28659 59.6462 6.13415 59.6462C5.82927 59.6462 5.5625 59.4531 5.5625 59.0285V58.681H5.86738V59.0285C5.86738 59.0285 5.9436 59.3373 6.09604 59.3373C6.24848 59.3373 6.3247 59.2215 6.3247 58.9899V58.488H6.62958V58.9513C6.62958 58.9513 6.74391 59.1829 6.85824 59.1829C7.0488 59.1829 7.16313 59.0671 7.16313 58.8354V58.295H7.46801L7.50612 58.2563Z" fill="black"/>
<path d="M8.38523 63.7773C8.38523 63.7773 8.23279 64.0862 8.08035 64.0862H7.5087C7.08949 64.0862 6.70839 63.8546 6.47973 63.5071C6.28918 63.8546 5.90807 64.0862 5.45075 64.0862H4.8791C4.8791 64.0862 4.57422 63.9704 4.57422 63.7773C4.57422 63.5843 4.72666 63.4685 4.8791 63.4685H5.41264C5.83185 63.4685 6.13673 63.121 6.13673 62.735V60.8047H6.7465V62.735C6.7465 63.1596 7.08949 63.4685 7.5087 63.4685H8.08035C8.08035 63.4685 8.38523 63.5843 8.38523 63.7773ZM6.21295 65.4374C6.21295 65.669 6.0224 65.8621 5.79374 65.8621C5.56508 65.8621 5.37453 65.669 5.37453 65.4374C5.37453 65.2058 5.56508 65.0127 5.79374 65.0127C6.0224 65.0127 6.21295 65.2058 6.21295 65.4374ZM7.43248 65.4374C7.43248 65.669 7.24193 65.8621 7.01327 65.8621C6.78461 65.8621 6.59406 65.669 6.59406 65.4374C6.59406 65.2058 6.78461 65.0127 7.01327 65.0127C7.24193 65.0127 7.43248 65.2058 7.43248 65.4374Z" fill="black"/>
<path d="M11.3167 63.7773C11.3167 63.7773 11.1643 64.0862 11.0118 64.0862H10.5926C10.1734 64.0862 9.79232 63.8545 9.56366 63.5071C9.37311 63.8545 8.99201 64.0862 8.53469 64.0862H8.03926C8.03926 64.0862 7.73438 63.9703 7.73438 63.7773C7.73438 63.5843 7.84871 63.4685 8.03926 63.4685H8.49658C8.87768 63.4685 9.22067 63.121 9.22067 62.7349V60.8046H9.83043V62.7349C9.83043 63.1596 10.1734 63.4685 10.5926 63.4685H11.0118C11.0118 63.4685 11.3167 63.5843 11.3167 63.7773ZM9.335 59.4534C9.335 59.6851 9.14445 59.8781 8.91579 59.8781C8.68713 59.8781 8.49658 59.6851 8.49658 59.4534C8.49658 59.2218 8.68713 59.0674 8.91579 59.0674C9.14445 59.0674 9.335 59.2604 9.335 59.4534ZM10.5164 59.4534C10.5164 59.6851 10.3259 59.8781 10.0972 59.8781C9.86854 59.8781 9.67799 59.6851 9.67799 59.4534C9.67799 59.2218 9.86854 59.0674 10.0972 59.0674C10.3259 59.0674 10.5164 59.2604 10.5164 59.4534Z" fill="black"/>
<path d="M19.6268 63.777C19.6268 63.777 19.4744 64.0858 19.3219 64.0858H18.7122C18.2548 64.0858 17.8737 63.777 17.7213 63.3909C17.4545 63.8156 16.9972 64.0858 16.4637 64.0858C15.8539 64.0858 15.3585 63.777 15.1298 63.2751C14.863 63.777 14.3676 64.0858 13.7578 64.0858C13.4149 64.0858 12.8432 63.9314 12.5383 63.4295C12.3859 63.8156 12.0048 64.0858 11.5475 64.0858H10.9377C10.9377 64.0858 10.6328 63.97 10.6328 63.777C10.6328 63.584 10.7853 63.4682 10.9377 63.4682H11.5475C11.8904 63.4682 12.1572 63.1979 12.1572 62.8505V60.8816H12.7289V62.503C12.7289 63.0435 13.1862 63.5068 13.7578 63.5068C14.3295 63.5068 14.7868 63.0435 14.7868 62.4644V60.8816H15.3585V62.503C15.3585 63.0435 15.8158 63.5068 16.3874 63.5068C16.9591 63.5068 17.4164 63.0435 17.4164 62.4644V60.0322H18.0262V62.8505C18.0262 63.1979 18.293 63.4682 18.6359 63.4682H19.2457C19.2457 63.4682 19.5506 63.6226 19.5506 63.777H19.6268Z" fill="black"/>
<path d="M22.7876 63.7773C22.7876 63.7773 22.6351 64.0862 22.4827 64.0862H21.911C21.4918 64.0862 21.1107 63.8546 20.8821 63.5071C20.6915 63.8546 20.3104 64.0862 19.8531 64.0862H19.2814C19.2814 64.0862 18.9766 63.9704 18.9766 63.7773C18.9766 63.5843 19.129 63.4685 19.2814 63.4685H19.815C20.2342 63.4685 20.5391 63.121 20.5391 62.735V60.8047H21.1488V62.735C21.1488 63.1596 21.4918 63.4685 21.911 63.4685H22.4827C22.4827 63.4685 22.7876 63.5843 22.7876 63.7773ZM20.6153 65.4374C20.6153 65.669 20.4247 65.8621 20.1961 65.8621C19.9674 65.8621 19.7769 65.669 19.7769 65.4374C19.7769 65.2058 19.9674 65.0127 20.1961 65.0127C20.4247 65.0127 20.6153 65.2058 20.6153 65.4374ZM21.8348 65.4374C21.8348 65.669 21.6443 65.8621 21.4156 65.8621C21.187 65.8621 20.9964 65.669 20.9964 65.4374C20.9964 65.2058 21.187 65.0127 21.4156 65.0127C21.6443 65.0127 21.8348 65.2058 21.8348 65.4374Z" fill="black"/>
<path d="M22.4455 64.0861C22.4455 64.0861 22.1406 63.9703 22.1406 63.7773C22.1406 63.5842 22.255 63.4684 22.4455 63.4684H26.5995C26.409 63.3526 26.2565 63.0823 26.2565 62.8121V62.426C26.2565 61.7697 26.0279 61.2679 25.6468 60.959C24.8464 60.3413 23.5507 60.6116 23.1696 60.7274L22.9409 60.1869C23.5507 59.9553 24.9989 59.7236 26.0279 60.4958C26.4852 60.8432 26.8282 61.4609 26.8282 62.3874V62.7735C26.8282 63.1596 27.0949 63.4298 27.4379 63.4298H27.5523V64.0475H22.4836L22.4455 64.0861ZM25.1513 65.3601C25.1513 65.5917 24.9608 65.7848 24.7321 65.7848C24.5035 65.7848 24.3129 65.5917 24.3129 65.3601C24.3129 65.1285 24.5035 64.974 24.7321 64.974C24.9608 64.974 25.1513 65.1285 25.1513 65.3601Z" fill="black"/>
<path d="M33.0019 64.0858H32.2015V64.1631C32.2015 64.7421 32.011 65.2054 31.6299 65.5529C31.0582 66.132 30.3341 66.2478 29.0765 66.2478V65.6687C29.6101 65.6687 30.639 65.6687 31.2488 65.1282C31.4775 64.9352 31.5918 64.6649 31.5918 64.3175V64.1245H30.4485C29.3433 64.1245 28.543 63.1979 28.543 62.0783C28.543 60.9588 29.3433 60.0322 30.4485 60.0322H32.2015V63.5068H33.0019V64.1245V64.0858ZM31.6299 60.6113H30.4866C29.7244 60.6113 29.1527 61.229 29.1527 62.0397C29.1527 62.8505 29.7244 63.5068 30.4866 63.5068H31.6299V60.6113Z" fill="black"/>
<path d="M35.8243 63.7772C35.8243 63.7772 35.6719 64.0861 35.5195 64.0861H35.2146C34.7954 64.0861 34.4143 63.8545 34.1856 63.507C33.9951 63.8545 33.614 64.0861 33.1566 64.0861H32.8518C32.8518 64.0861 32.5469 63.9703 32.5469 63.7772C32.5469 63.5842 32.6993 63.4684 32.8518 63.4684H33.0804C33.4996 63.4684 33.8045 63.1209 33.8045 62.7349V57.9478H34.4143V62.7349C34.4143 63.1595 34.7573 63.4684 35.1765 63.4684H35.4814C35.4814 63.4684 35.7862 63.5842 35.7862 63.7772H35.8243Z" fill="black"/>
<path d="M35.2109 63.7773C35.2109 63.7773 35.3253 63.4684 35.5158 63.4684H36.0875C36.4305 63.4684 36.6972 63.1982 36.6972 62.8507V57.9092H37.307V62.8507C37.307 63.507 36.7735 64.0475 36.1256 64.0475H35.5539C35.5539 64.0475 35.249 63.9317 35.249 63.7387L35.2109 63.7773Z" fill="black"/>
<path d="M38.8711 57.9092H39.4427V64.0861H38.8711V57.9092Z" fill="black"/>
</g>
<defs>
<clipPath id="clip0_256_389">
<rect width="146" height="72" fill="white"/>
</clipPath>
</defs>
</svg>
