<svg width="40" height="40" viewBox="0 0 40 40" fill="none" xmlns="http://www.w3.org/2000/svg">
<path fill-rule="evenodd" clip-rule="evenodd" d="M18.3333 10.0002C18.3333 9.07969 19.0795 8.3335 20 8.3335H33.3333C34.2538 8.3335 35 9.07969 35 10.0002C35 10.9206 34.2538 11.6668 33.3333 11.6668H20C19.0795 11.6668 18.3333 10.9206 18.3333 10.0002ZM5 20.0002C5 19.0797 5.74619 18.3335 6.66667 18.3335H33.3333C34.2538 18.3335 35 19.0797 35 20.0002C35 20.9206 34.2538 21.6668 33.3333 21.6668H6.66667C5.74619 21.6668 5 20.9206 5 20.0002ZM6.66667 28.3335C5.74619 28.3335 5 29.0797 5 30.0002C5 30.9206 5.74619 31.6668 6.66667 31.6668H20C20.9205 31.6668 21.6667 30.9206 21.6667 30.0002C21.6667 29.0797 20.9205 28.3335 20 28.3335H6.66667Z" fill="#2F2F2F"/>
</svg>
