<svg width="24" height="24" viewBox="0 0 24 24" fill="none" xmlns="http://www.w3.org/2000/svg">
<path fill-rule="evenodd" clip-rule="evenodd" d="M15 3H9C7.34314 3 6 4.34315 6 6V18C6 19.6569 7.34315 21 9 21H15C16.6569 21 18 19.6569 18 18V6C18 4.34315 16.6569 3 15 3ZM8 6C8 5.44772 8.44772 5 9 5H15C15.5523 5 16 5.44772 16 6V18C16 18.5523 15.5523 19 15 19H9C8.44772 19 8 18.5523 8 18V6ZM11 7C10.4477 7 10 7.44772 10 8C10 8.55228 10.4477 9 11 9H13C13.5523 9 14 8.55228 14 8C14 7.44772 13.5523 7 13 7H11Z" fill="white"/>
</svg>
