<svg width="56" height="56" viewBox="0 0 56 56" fill="none" xmlns="http://www.w3.org/2000/svg">
<path opacity="0.4" d="M27.9994 51.3337C40.886 51.3337 51.3327 40.887 51.3327 28.0003C51.3327 15.1137 40.886 4.66699 27.9994 4.66699C15.1127 4.66699 4.66602 15.1137 4.66602 28.0003C4.66602 40.887 15.1127 51.3337 27.9994 51.3337Z" fill="#12B76A"/>
<path d="M24.6873 36.3531C24.2207 36.3531 23.7773 36.1664 23.4507 35.8397L16.8473 29.2364C16.1707 28.5597 16.1707 27.4397 16.8473 26.7631C17.524 26.0864 18.644 26.0864 19.3207 26.7631L24.6873 32.1297L36.6807 20.1364C37.3573 19.4597 38.4773 19.4597 39.154 20.1364C39.8307 20.8131 39.8307 21.9331 39.154 22.6097L25.924 35.8397C25.5973 36.1664 25.154 36.3531 24.6873 36.3531Z" fill="#12B76A"/>
</svg>
