<svg width="32" height="32" viewBox="0 0 32 32" fill="none" xmlns="http://www.w3.org/2000/svg">
<path d="M25.5391 11.1016C25.5391 11.3359 25.5391 11.5234 25.5391 11.7578C25.5391 18.2734 20.6172 25.7266 11.5703 25.7266C8.75781 25.7266 6.17969 24.9297 4.02344 23.5234C4.39844 23.5703 4.77344 23.6172 5.19531 23.6172C7.49219 23.6172 9.60156 22.8203 11.2891 21.5078C9.13281 21.4609 7.30469 20.0547 6.69531 18.0859C7.02344 18.1328 7.30469 18.1797 7.63281 18.1797C8.05469 18.1797 8.52344 18.0859 8.89844 17.9922C6.64844 17.5234 4.96094 15.5547 4.96094 13.1641V13.1172C5.61719 13.4922 6.41406 13.6797 7.21094 13.7266C5.85156 12.8359 5.00781 11.3359 5.00781 9.64844C5.00781 8.71094 5.24219 7.86719 5.66406 7.16406C8.10156 10.1172 11.7578 12.0859 15.8359 12.3203C15.7422 11.9453 15.6953 11.5703 15.6953 11.1953C15.6953 8.47656 17.8984 6.27344 20.6172 6.27344C22.0234 6.27344 23.2891 6.83594 24.2266 7.82031C25.3047 7.58594 26.3828 7.16406 27.3203 6.60156C26.9453 7.77344 26.1953 8.71094 25.1641 9.32031C26.1484 9.22656 27.1328 8.94531 27.9766 8.57031C27.3203 9.55469 26.4766 10.3984 25.5391 11.1016Z" fill="black"/>
</svg>
