<svg width="56" height="56" viewBox="0 0 56 56" fill="none" xmlns="http://www.w3.org/2000/svg">
<path opacity="0.4" d="M50.7738 37.147L35.8404 10.267C33.8338 6.65033 31.0571 4.66699 28.0004 4.66699C24.9438 4.66699 22.1671 6.65033 20.1604 10.267L5.2271 37.147C3.3371 40.577 3.1271 43.867 4.64377 46.457C6.16044 49.047 9.1471 50.4703 13.0671 50.4703H42.9338C46.8538 50.4703 49.8404 49.047 51.3571 46.457C52.8738 43.867 52.6638 40.5537 50.7738 37.147Z" fill="#F04438"/>
<path d="M28 34.4167C27.0433 34.4167 26.25 33.6233 26.25 32.6667V21C26.25 20.0433 27.0433 19.25 28 19.25C28.9567 19.25 29.75 20.0433 29.75 21V32.6667C29.75 33.6233 28.9567 34.4167 28 34.4167Z" fill="#F04438"/>
<path d="M27.9993 41.9996C27.8593 41.9996 27.696 41.9763 27.5327 41.953C27.3927 41.9296 27.2527 41.883 27.1127 41.813C26.9727 41.7663 26.8327 41.6963 26.6927 41.603C26.576 41.5096 26.4593 41.4163 26.3427 41.323C25.9227 40.8796 25.666 40.273 25.666 39.6663C25.666 39.0596 25.9227 38.453 26.3427 38.0096C26.4593 37.9163 26.576 37.823 26.6927 37.7296C26.8327 37.6363 26.9727 37.5663 27.1127 37.5196C27.2527 37.4496 27.3927 37.403 27.5327 37.3796C27.836 37.3096 28.1627 37.3096 28.4427 37.3796C28.606 37.403 28.746 37.4496 28.886 37.5196C29.026 37.5663 29.166 37.6363 29.306 37.7296C29.4227 37.823 29.5393 37.9163 29.656 38.0096C30.076 38.453 30.3327 39.0596 30.3327 39.6663C30.3327 40.273 30.076 40.8796 29.656 41.323C29.5393 41.4163 29.4227 41.5096 29.306 41.603C29.166 41.6963 29.026 41.7663 28.886 41.813C28.746 41.883 28.606 41.9296 28.4427 41.953C28.3027 41.9763 28.1393 41.9996 27.9993 41.9996Z" fill="#F04438"/>
</svg>
